<svg width="128" height="238" viewBox="0 0 128 238" fill="none" xmlns="http://www.w3.org/2000/svg">
<path d="M78.4988 198.1L77.8672 197.863C77.7284 197.811 63.915 192.518 57.4442 180.518C50.9731 168.517 54.1417 154.068 54.1745 153.924L54.3236 153.266L54.9549 153.503C55.0937 153.555 68.9068 158.847 75.3779 170.848C81.849 182.848 78.6804 197.298 78.6476 197.442L78.4988 198.1ZM58.4804 179.959C63.9512 190.106 74.867 195.307 77.6327 196.494C78.1586 193.53 79.8077 181.543 74.3417 171.406C68.8764 161.271 57.9563 156.062 55.1894 154.872C54.6633 157.838 53.0148 169.824 58.4804 179.959Z" fill="#3A8C6F"/>
<path d="M62.8879 177.306C74.5168 184.302 78.9955 198.198 78.9955 198.198C78.9955 198.198 64.62 200.752 52.9911 193.755C41.3622 186.759 36.8835 172.863 36.8835 172.863C36.8835 172.863 51.259 170.309 62.8879 177.306Z" fill="#D0CDE1"/>
<path d="M76.7277 237.059C67.3454 237.048 58.3505 233.317 51.7162 226.682C45.0819 220.048 41.3501 211.053 41.3395 201.671V201.172H112.116V201.671C112.105 211.053 108.374 220.048 101.739 226.682C95.105 233.317 86.11 237.048 76.7277 237.059V237.059ZM42.3397 202.169C42.4707 211.203 46.1513 219.823 52.5861 226.165C59.0209 232.507 67.6929 236.062 76.7277 236.062C85.7626 236.062 94.4346 232.507 100.869 226.165C107.304 219.823 110.985 211.203 111.116 202.169H42.3397Z" fill="#3A8C6F"/>
<path d="M76.7277 230.829C82.9406 230.829 88.8991 228.361 93.2924 223.967C97.6856 219.574 100.154 213.616 100.154 207.403H53.3016C53.3016 213.616 55.7697 219.574 60.163 223.967C64.5562 228.361 70.5147 230.829 76.7277 230.829Z" fill="#3C5962"/>
<path d="M127.597 127.597H0V0H127.597V127.597ZM0.996852 126.6H126.6V0.996852H0.996852V126.6Z" fill="#3A8C6F"/>
<path d="M112.146 15.4512H15.4512V112.146H112.146V15.4512Z" fill="#3C5962"/>
<path d="M51.5107 83.3303C48.6175 74.3545 44.9694 67.995 40.0299 63.3169L39.7145 63.018L39.9676 62.6646C49.4197 49.469 57.2193 36.5596 63.1497 24.2953L63.5888 23.3878L64.0434 24.2875C71.6176 39.2782 79.3296 51.8272 87.6203 62.6519L87.8778 62.9883L87.5877 63.2966C81.5833 69.6747 77.6917 76.2219 75.6912 83.3128L74.7313 83.0421C76.7445 75.9082 80.6195 69.3228 86.5724 62.9223C78.5066 52.3417 70.9864 40.131 63.6078 25.6326C57.762 37.5683 50.1702 50.0973 41.0292 62.8938C45.936 67.6613 49.5745 74.0727 52.4599 83.0246L51.5107 83.3303Z" fill="#3A8C6F"/>
<path d="M64.0969 24.5125H63.1001V62.955H64.0969V24.5125Z" fill="#3A8C6F"/>
<path d="M63.5983 65.7581C65.1464 65.7581 66.4014 64.5031 66.4014 62.955C66.4014 61.4069 65.1464 60.1519 63.5983 60.1519C62.0501 60.1519 60.7952 61.4069 60.7952 62.955C60.7952 64.5031 62.0501 65.7581 63.5983 65.7581Z" fill="#3A8C6F"/>
<path d="M82.7841 81.3258L44.0177 107.108L44.5697 107.938L83.3361 82.1559L82.7841 81.3258Z" fill="#CFCCE0"/>
<path d="M41.9316 94.1326C40.2137 92.9618 39.7284 91.814 39.6808 91.692L40.609 91.3292L40.1449 91.5106L40.6076 91.3253C40.6366 91.396 43.7856 98.4301 64.0634 94.5904C85.2999 90.5685 87.7743 96.8381 87.8692 97.1068L86.9289 97.439C86.9099 97.389 84.4354 91.747 64.2488 95.5697C51.0134 98.0764 44.7792 96.0735 41.9316 94.1326Z" fill="#3A8C6F"/>
<path d="M42.4211 88.7967L37.5239 89.7241L38.4513 94.6213L43.3486 93.6939L42.4211 88.7967Z" fill="#3A8C6F"/>
<path d="M88.8016 93.9637L83.9044 94.8911L84.8318 99.7883L89.7291 98.8609L88.8016 93.9637Z" fill="#3A8C6F"/>
<path d="M63.8995 97.2378C65.2758 97.2378 66.3916 96.122 66.3916 94.7457C66.3916 93.3693 65.2758 92.2535 63.8995 92.2535C62.5231 92.2535 61.4073 93.3693 61.4073 94.7457C61.4073 96.122 62.5231 97.2378 63.8995 97.2378Z" fill="#CFCCE0"/>
<path d="M44.2934 110.014C45.6698 110.014 46.7855 108.898 46.7855 107.522C46.7855 106.146 45.6698 105.03 44.2934 105.03C42.917 105.03 41.8013 106.146 41.8013 107.522C41.8013 108.898 42.917 110.014 44.2934 110.014Z" fill="#CFCCE0"/>
<path d="M83.0599 84.2325C84.4362 84.2325 85.552 83.1167 85.552 81.7404C85.552 80.364 84.4362 79.2482 83.0599 79.2482C81.6835 79.2482 80.5677 80.364 80.5677 81.7404C80.5677 83.1167 81.6835 84.2325 83.0599 84.2325Z" fill="#CFCCE0"/>
<path d="M64.2969 63.7793H63.3V72.751H64.2969V63.7793Z" fill="#3A8C6F"/>
<path d="M107.381 236.503H41.5886V237.5H107.381V236.503Z" fill="#3A8C6F"/>
</svg>
