<svg width="147" height="46" viewBox="0 0 147 46" fill="none" xmlns="http://www.w3.org/2000/svg">
<path d="M45.9199 29.9961C45.9199 31.3542 45.6875 32.4023 45.2227 33.1406H49.2695C49.0964 33.1862 48.8958 33.3092 48.668 33.5098C48.4401 33.7103 48.2031 33.9199 47.957 34.1387C47.3099 34.7129 46.8587 35 46.6035 35H42.543C42.9987 34.3255 43.2266 33.4049 43.2266 32.2383C43.2266 31.0716 43.1947 29.9505 43.1309 28.875C43.0762 27.7904 43.0306 26.8607 42.9941 26.0859C42.9577 25.3112 42.9258 24.6686 42.8984 24.1582C42.8802 23.6478 42.862 23.1328 42.8438 22.6133C42.7708 21.0911 42.7207 20.084 42.6934 19.5918C41.8822 21.0046 41.0527 22.472 40.2051 23.9941C39.3665 25.5072 38.6465 26.7878 38.0449 27.8359C37.4434 28.8841 36.9648 29.75 36.6094 30.4336C36.263 31.1172 35.8939 31.7962 35.502 32.4707C35.4199 32.6074 34.987 32.931 34.2031 33.4414C33.4193 33.9518 32.9681 34.248 32.8496 34.3301C32.3483 32.7988 31.7194 31.3724 30.9629 30.0508C30.2064 28.7292 29.582 27.6719 29.0898 26.8789C28.5977 26.0859 28.1146 25.293 27.6406 24.5L25.4668 20.877C25.0749 25.5892 24.7741 28.474 24.5645 29.5312C24.3639 30.5794 24.168 31.3724 23.9766 31.9102C23.7943 32.4388 23.5618 32.849 23.2793 33.1406H27.6543C26.1413 34.3802 25.2572 35 25.002 35H20.5039C21.0326 34.4714 21.4746 33.3138 21.8301 31.5273C22.2311 29.5404 22.7005 24.7598 23.2383 17.1855H19.8066C20.472 16.5202 21.2604 15.9368 22.1719 15.4355C22.2995 15.3626 22.3952 15.3262 22.459 15.3262H25.9043C26.6699 16.5931 27.431 17.8555 28.1875 19.1133L30.457 22.9004C30.8398 23.5384 31.2272 24.1764 31.6191 24.8145C32.0111 25.4434 32.3939 26.0768 32.7676 26.7148C33.6699 28.2734 34.3535 29.5951 34.8184 30.6797C35.6842 29.1576 36.7051 27.321 37.8809 25.1699C39.9681 21.3236 41.5221 18.5254 42.543 16.7754C42.7161 16.4928 43.3906 16.0052 44.5664 15.3125C44.8307 15.1576 45.0404 15.0254 45.1953 14.916C45.4141 18.8991 45.569 22.0573 45.6602 24.3906C45.7604 26.724 45.8288 28.123 45.8652 28.5879C45.9017 29.0527 45.9199 29.5221 45.9199 29.9961ZM54.1641 11.7988L54.2461 13.3574V14.0684C54.2461 14.5059 54.1914 14.7747 54.082 14.875C53.9727 14.9661 53.8542 15.0573 53.7266 15.1484C53.2161 15.513 52.4779 16.0052 51.5117 16.625C51.5573 15.7135 51.5801 15.2441 51.5801 15.2168C51.5801 15.1803 51.5573 14.6608 51.5117 13.6582L54.1641 11.7988ZM57.0215 33.3184C56.748 33.5371 56.4792 33.7604 56.2148 33.9883C55.9596 34.2161 55.6908 34.4258 55.4082 34.6172C54.752 35.0456 54.123 35.2598 53.5215 35.2598C52.9564 35.2598 52.5599 35.1732 52.332 35C51.8672 34.6536 51.6348 34.0156 51.6348 33.0859V26.6055C51.6348 25.6211 51.457 24.9831 51.1016 24.6914C50.9375 24.5547 50.7598 24.4863 50.5684 24.4863C50.377 24.4863 50.2129 24.5 50.0762 24.5273C49.9486 24.5456 49.8164 24.5684 49.6797 24.5957C49.543 24.623 49.4017 24.6504 49.2559 24.6777C49.7116 24.3223 50.1354 24.0033 50.5273 23.7207C50.9284 23.4382 51.2702 23.2012 51.5527 23.0098C51.8353 22.8184 52.2272 22.5495 52.7285 22.2031C53.2298 21.8477 53.7493 21.5286 54.2871 21.2461V30.8984C54.2871 31.8281 54.3464 32.416 54.4648 32.6621C54.7201 33.1634 55.2852 33.4141 56.1602 33.4141C56.3971 33.4141 56.6842 33.3822 57.0215 33.3184ZM59.5781 34.0703L59.5918 25.2793C59.5918 24.6686 59.5098 24.2585 59.3457 24.0488C59.0632 23.6842 58.6712 23.502 58.1699 23.502C57.6686 23.502 57.222 23.5749 56.8301 23.7207C57.0671 23.6296 57.377 23.4154 57.7598 23.0781C58.4616 22.431 58.9583 22.0527 59.25 21.9434C59.7969 21.7246 60.2754 21.6152 60.6855 21.6152C61.1048 21.6152 61.4147 21.6836 61.6152 21.8203C61.8249 21.957 61.9753 22.1393 62.0664 22.3672C62.1849 22.6497 62.2441 23.1875 62.2441 23.9805C63.9486 22.4766 65.5436 21.7246 67.0293 21.7246C67.8405 21.7246 68.5469 21.9798 69.1484 22.4902C69.7773 23.0371 70.0918 23.7025 70.0918 24.4863V31.2402C70.0918 31.9147 70.1647 32.3796 70.3105 32.6348C70.584 33.1178 71.0397 33.3594 71.6777 33.3594C72.0423 33.3594 72.3887 33.291 72.7168 33.1543C71.9056 33.8561 71.3451 34.3073 71.0352 34.5078C70.3242 34.9727 69.6999 35.2051 69.1621 35.2051C68.6335 35.2051 68.2552 35.1094 68.0273 34.918C67.8086 34.7266 67.6536 34.485 67.5625 34.1934C67.4622 33.8743 67.4121 33.2227 67.4121 32.2383V27.125C67.4121 25.4935 66.8789 24.418 65.8125 23.8984C65.4297 23.7161 64.9694 23.625 64.4316 23.625C63.11 23.625 62.3945 24.6048 62.2852 26.5645C62.2578 27.0566 62.2441 27.4987 62.2441 27.8906V32.1152C62.2441 32.6986 62.4219 33.0951 62.7773 33.3047C62.9049 33.3867 63.0645 33.4277 63.2559 33.4277C63.4473 33.4277 63.6478 33.3822 63.8574 33.291C63.666 33.4551 63.4382 33.651 63.1738 33.8789C62.9095 34.1068 62.6315 34.3255 62.3398 34.5352C61.6198 35.0273 61.0456 35.2734 60.6172 35.2734C59.9245 35.2734 59.5781 34.8724 59.5781 34.0703ZM77.707 11.7988L77.7891 13.3574V14.0684C77.7891 14.5059 77.7344 14.7747 77.625 14.875C77.5156 14.9661 77.3971 15.0573 77.2695 15.1484C76.7591 15.513 76.0208 16.0052 75.0547 16.625C75.1003 15.7135 75.123 15.2441 75.123 15.2168C75.123 15.1803 75.1003 14.6608 75.0547 13.6582L77.707 11.7988ZM80.5645 33.3184C80.291 33.5371 80.0221 33.7604 79.7578 33.9883C79.5026 34.2161 79.2337 34.4258 78.9512 34.6172C78.2949 35.0456 77.666 35.2598 77.0645 35.2598C76.4993 35.2598 76.1029 35.1732 75.875 35C75.4102 34.6536 75.1777 34.0156 75.1777 33.0859V26.6055C75.1777 25.6211 75 24.9831 74.6445 24.6914C74.4805 24.5547 74.3027 24.4863 74.1113 24.4863C73.9199 24.4863 73.7559 24.5 73.6191 24.5273C73.4915 24.5456 73.3594 24.5684 73.2227 24.5957C73.0859 24.623 72.9447 24.6504 72.7988 24.6777C73.2546 24.3223 73.6784 24.0033 74.0703 23.7207C74.4714 23.4382 74.8132 23.2012 75.0957 23.0098C75.3783 22.8184 75.7702 22.5495 76.2715 22.2031C76.7728 21.8477 77.2923 21.5286 77.8301 21.2461V30.8984C77.8301 31.8281 77.8893 32.416 78.0078 32.6621C78.263 33.1634 78.8281 33.4141 79.7031 33.4141C79.9401 33.4141 80.2272 33.3822 80.5645 33.3184ZM107.293 24.2812C107.293 25.4023 107.111 26.4596 106.746 27.4531C106.391 28.4466 105.898 29.3444 105.27 30.1465C104.65 30.9486 103.916 31.6549 103.068 32.2656C102.221 32.8672 101.314 33.3685 100.348 33.7695C98.388 34.5898 96.319 35 94.1406 35H89.7383C90.431 34.2799 90.7773 32.9811 90.7773 31.1035V17.1855H87.7695C87.9154 17.1491 88.2253 16.9212 88.6992 16.502C89.6016 15.7181 90.1758 15.3262 90.4219 15.3262L96.4922 15.3125C99.5182 15.3125 102.011 15.9961 103.971 17.3633C106.186 18.9036 107.293 21.2096 107.293 24.2812ZM104.176 29.3535C104.495 28.4785 104.654 27.4486 104.654 26.2637C104.654 25.0697 104.531 24.0215 104.285 23.1191C104.048 22.2168 103.702 21.4329 103.246 20.7676C102.79 20.0931 102.234 19.528 101.578 19.0723C100.922 18.6165 100.179 18.2474 99.3496 17.9648C97.7819 17.4453 95.8086 17.1855 93.4297 17.1855V30.3652C93.4297 31.2949 93.293 32.0013 93.0195 32.4844C92.901 32.6758 92.7461 32.9082 92.5547 33.1816H97.1074C100.908 33.1816 103.264 31.9056 104.176 29.3535ZM119.68 32.4707C118.431 33.8652 116.882 34.7357 115.031 35.082C114.603 35.1549 114.074 35.1914 113.445 35.1914C112.816 35.1914 112.224 35.0182 111.668 34.6719C111.112 34.3164 110.656 33.8607 110.301 33.3047C109.626 32.2292 109.289 30.9167 109.289 29.3672C109.289 28.3464 109.681 27.2161 110.465 25.9766C111.23 24.7552 112.165 23.7344 113.268 22.9141C114.452 22.0391 115.574 21.6016 116.631 21.6016C117.178 21.6016 117.638 21.8021 118.012 22.2031C118.358 22.5951 118.531 23.0417 118.531 23.543C118.531 24.0443 118.422 24.5091 118.203 24.9375C117.984 25.3568 117.697 25.7669 117.342 26.168C116.995 26.569 116.594 26.9564 116.139 27.3301C115.692 27.6947 115.232 28.0365 114.758 28.3555C114.092 28.8112 113.254 29.3262 112.242 29.9004C112.534 31.0033 113.049 31.8555 113.787 32.457C114.525 33.0495 115.478 33.3457 116.645 33.3457C117.629 33.3457 118.641 33.054 119.68 32.4707ZM115.551 26.9883C115.797 26.5964 115.92 26.2135 115.92 25.8398C115.92 25.4661 115.879 25.1517 115.797 24.8965C115.715 24.6322 115.596 24.3997 115.441 24.1992C115.086 23.7435 114.626 23.5156 114.061 23.5156C112.675 23.5156 111.982 24.9284 111.982 27.7539C111.982 28.2552 112.023 28.752 112.105 29.2441C113.71 28.7975 114.858 28.0456 115.551 26.9883ZM127.227 24.3906C127.4 24.263 127.486 24.1263 127.486 23.9805C127.486 23.8346 127.4 23.7207 127.227 23.6387C127.053 23.5566 126.853 23.4928 126.625 23.4473C126.27 23.3743 125.937 23.3379 125.627 23.3379C125.326 23.3379 125.089 23.3561 124.916 23.3926C124.752 23.4199 124.611 23.4746 124.492 23.5566C124.237 23.7298 124.109 24.0352 124.109 24.4727C124.109 24.9102 124.205 25.2702 124.396 25.5527C124.588 25.8262 124.839 26.0586 125.148 26.25C125.467 26.4414 125.827 26.6009 126.229 26.7285C126.63 26.8561 127.035 26.9837 127.445 27.1113C127.865 27.2298 128.275 27.362 128.676 27.5078C129.077 27.6536 129.432 27.8451 129.742 28.082C130.444 28.5924 130.795 29.2943 130.795 30.1875C130.795 31.0716 130.371 31.9375 129.523 32.7852C128.803 33.5052 127.855 34.1159 126.68 34.6172C125.586 35.0911 124.611 35.3281 123.754 35.3281C122.715 35.3281 121.881 35.1094 121.252 34.6719C121.024 34.5078 120.91 34.2982 120.91 34.043C120.91 33.7786 121.029 33.5417 121.266 33.332C121.503 33.1133 121.781 32.9128 122.1 32.7305C122.419 32.5391 122.738 32.3613 123.057 32.1973C123.376 32.0241 123.617 31.8418 123.781 31.6504C123.617 31.8327 123.535 32.0378 123.535 32.2656C123.535 32.4935 123.663 32.6895 123.918 32.8535C124.173 33.0085 124.474 33.1315 124.82 33.2227C125.422 33.3685 126.001 33.4414 126.557 33.4414C127.113 33.4414 127.514 33.3411 127.76 33.1406C128.015 32.931 128.143 32.5846 128.143 32.1016C128.143 31.6185 128.047 31.2266 127.855 30.9258C127.664 30.6159 127.413 30.3516 127.104 30.1328C126.794 29.9141 126.438 29.7318 126.037 29.5859C125.636 29.431 125.226 29.2852 124.807 29.1484C124.396 29.0026 123.991 28.8568 123.59 28.7109C123.189 28.5651 122.833 28.3874 122.523 28.1777C121.831 27.7129 121.484 27.1068 121.484 26.3594C121.484 25.6484 121.904 24.8874 122.742 24.0762C123.471 23.3835 124.232 22.8411 125.025 22.4492C126.383 21.793 127.409 21.4648 128.102 21.4648C128.822 21.4648 129.341 21.5423 129.66 21.6973C129.979 21.8522 130.139 21.9889 130.139 22.1074C130.139 22.2168 130.102 22.3171 130.029 22.4082C129.956 22.4993 129.865 22.5859 129.756 22.668C129.656 22.7409 129.551 22.8092 129.441 22.873C129.332 22.9368 129.177 23.0326 128.977 23.1602C128.776 23.2878 128.507 23.4609 128.17 23.6797C127.833 23.8893 127.518 24.1263 127.227 24.3906ZM133.748 16.7207C133.748 15.3535 133.347 14.6699 132.545 14.6699C132.308 14.6699 131.916 14.7383 131.369 14.875C131.743 14.5924 132.135 14.2962 132.545 13.9863C132.964 13.6673 133.388 13.3529 133.816 13.043C134.746 12.3958 135.612 11.8626 136.414 11.4434L136.4 23.9941C137.421 23.0827 138.556 22.4128 139.805 21.9844C140.224 21.8385 140.593 21.7656 140.912 21.7656C141.231 21.7656 141.514 21.8203 141.76 21.9297C142.015 22.0391 142.234 22.1849 142.416 22.3672C142.808 22.7773 143.004 23.2376 143.004 23.748C143.004 24.2585 142.876 24.7233 142.621 25.1426C142.366 25.5527 142.051 25.9401 141.678 26.3047C141.149 26.8333 140.37 27.4303 139.34 28.0957C139.467 28.2324 139.668 28.4557 139.941 28.7656C140.224 29.0755 140.538 29.4219 140.885 29.8047C141.24 30.1875 141.614 30.584 142.006 30.9941C142.407 31.4043 142.785 31.778 143.141 32.1152C143.961 32.89 144.499 33.2773 144.754 33.2773C145.392 33.2773 146.021 33.0996 146.641 32.7441C145.857 33.8197 144.895 34.5762 143.756 35.0137C143.373 35.1595 143.036 35.2324 142.744 35.2324C142.462 35.2324 142.234 35.2005 142.061 35.1367C141.896 35.0729 141.737 34.9909 141.582 34.8906C141.281 34.6901 140.876 34.3346 140.365 33.8242C139.299 32.7487 137.977 31.3587 136.4 29.6543V31.0625C136.4 31.2721 136.396 31.5137 136.387 31.7871C136.387 32.0514 136.414 32.3066 136.469 32.5527C136.596 33.1361 136.915 33.4277 137.426 33.4277C137.617 33.4277 137.818 33.3822 138.027 33.291C137.836 33.4551 137.613 33.651 137.357 33.8789C137.111 34.1068 136.847 34.3255 136.564 34.5352C135.89 35.0365 135.334 35.2871 134.896 35.2871C134.131 35.2871 133.748 34.6309 133.748 33.3184V16.7207ZM138.328 23.625C137.043 23.625 136.4 25.2702 136.4 28.5605V29.2715C138.068 28.6061 139.249 27.7767 139.941 26.7832C140.215 26.3913 140.352 26.013 140.352 25.6484C140.352 25.2747 140.297 24.974 140.188 24.7461C140.078 24.5091 139.932 24.3086 139.75 24.1445C139.349 23.7982 138.875 23.625 138.328 23.625Z" fill="white"/>
<path d="M7.48282 27C-5.01723 2 33.9827 17.5 46.4828 0C26.4828 9.47374 -17.5172 -9 7.48282 27Z" fill="white"/>
</svg>
